<svg id="Group_67" data-name="Group 67" xmlns="http://www.w3.org/2000/svg" xmlns:xlink="http://www.w3.org/1999/xlink" width="160" height="34.932" viewBox="0 0 160 34.932">
  <defs>
    <clipPath id="clip-path">
      <rect id="Rectangle_3" data-name="Rectangle 3" width="160" height="34.932" fill="#fff"/>
    </clipPath>
  </defs>
  <path id="Path_1" data-name="Path 1" d="M37,28.662l1.759-1.756,1.759,1.756L38.76,30.417Zm26.813-21L58.851,13.37,45.984,15.124l7.4.694-3.638,3.635-6.679-1.358-4.305,4.3-4.306-4.3-6.679,1.358-3.641-3.635,7.4-.694L18.669,13.37,13.7,7.663l25.057,6ZM77.52,0l-34.5,8.27L38.76,4.024,34.5,8.27,0,0,16.558,16.529,20,16.206l6.726,6.715,6.682-1.356L36.5,24.649l-4.018,4.013,6.281,6.27,6.281-6.27-4.019-4.013,3.089-3.084,6.679,1.356,6.73-6.715,3.444.323Z" fill="#fff"/>
  <g id="Group_2" data-name="Group 2">
    <g id="Group_1" data-name="Group 1" clip-path="url(#clip-path)">
      <path id="Path_2" data-name="Path 2" d="M201.921,45.992l-.1.126a2.251,2.251,0,0,1-.373.372,2.279,2.279,0,0,1-.448.276,2.4,2.4,0,0,1-.52.171,2.807,2.807,0,0,1-.57.056A2.565,2.565,0,0,1,198.9,46.8a2.127,2.127,0,0,1-.792-.577,2.235,2.235,0,0,1-.419-.716,2.476,2.476,0,0,1-.14-.843,2.173,2.173,0,0,1,.677-1.622,2.281,2.281,0,0,1,.763-.494,2.549,2.549,0,0,1,.925-.164,2.663,2.663,0,0,1,.577.06,2.381,2.381,0,0,1,.523.181,2.236,2.236,0,0,1,.817.68l.09.125-.3.227-.308.237-.1-.142a1.6,1.6,0,0,0-.147-.172,1.4,1.4,0,0,0-.172-.144,1.593,1.593,0,0,0-.2-.123,1.655,1.655,0,0,0-.222-.09,1.742,1.742,0,0,0-.251-.056,2.048,2.048,0,0,0-.276-.023,2.008,2.008,0,0,0-.437.041,1.5,1.5,0,0,0-.2.055c-.04.014-.076.03-.115.047a1.812,1.812,0,0,0-.172.091,1.355,1.355,0,0,0-.162.116,1.736,1.736,0,0,0-.154.144,1.447,1.447,0,0,0-.129.156,1.538,1.538,0,0,0-.1.158,1.445,1.445,0,0,0-.129.348,1.817,1.817,0,0,0-.033.2,1.945,1.945,0,0,0,.058.655,1.56,1.56,0,0,0,.136.331c.033.051.065.1.1.151s.065.084.1.123a1.5,1.5,0,0,0,.158.146,1.112,1.112,0,0,0,.168.118,1.459,1.459,0,0,0,.187.091,1.536,1.536,0,0,0,.212.066,1.629,1.629,0,0,0,.24.041,2.243,2.243,0,0,0,.272.013,2.1,2.1,0,0,0,.276-.021,1.74,1.74,0,0,0,.251-.055,1.438,1.438,0,0,0,.222-.086,1.354,1.354,0,0,0,.2-.115,1.435,1.435,0,0,0,.176-.14,1.572,1.572,0,0,0,.154-.168l.09-.115Z" transform="translate(-82.691 -17.742)" fill="#fff" fill-rule="evenodd"/>
      <path id="Path_3" data-name="Path 3" d="M196.755,23.118a.375.375,0,0,1,.373.376v6.342h3.126v-7.5a1.875,1.875,0,0,0-1.875-1.875h-7.259a1.875,1.875,0,0,0-1.874,1.875v7.5h3.122V23.493a.376.376,0,0,1,.377-.376Z" transform="translate(-79.217 -8.563)" fill="#fff" fill-rule="evenodd"/>
      <path id="Path_4" data-name="Path 4" d="M217.709,23.117h3.94V20.456H210.639v2.662h3.943v6.718h3.126Z" transform="translate(-88.172 -8.563)" fill="#fff" fill-rule="evenodd"/>
      <path id="Path_5" data-name="Path 5" d="M239.623,29.835l-3.248-5.029h2.918a.376.376,0,0,0,.376-.376v-.938a.376.376,0,0,0-.376-.376h-4.126v6.718h-3.126V20.456h8.123a2.627,2.627,0,0,1,2.628,2.626v1.2a2.625,2.625,0,0,1-1.951,2.537q.979,1.51,1.951,3.019Z" transform="translate(-97.131 -8.563)" fill="#fff" fill-rule="evenodd"/>
      <path id="Path_6" data-name="Path 6" d="M149.866,23.118a.376.376,0,0,1,.376.376v6.342h3.123v-7.5a1.875,1.875,0,0,0-1.875-1.876H140.363a1.875,1.875,0,0,0-1.875,1.876v7.5h3.126V23.493a.373.373,0,0,1,.373-.376h2a.373.373,0,0,1,.373.376v6.342h3.126V23.493a.376.376,0,0,1,.377-.376Z" transform="translate(-57.97 -8.563)" fill="#fff" fill-rule="evenodd"/>
      <path id="Path_7" data-name="Path 7" d="M261.4,21.488a1.873,1.873,0,0,0-1.674-1.032h-1.552a1.875,1.875,0,0,0-1.674,1.032L252.3,29.835h3.782q1.436-2.853,2.875-5.708,1.436,2.854,2.875,5.708h3.782q-2.1-4.174-4.209-8.347" transform="translate(-105.609 -8.563)" fill="#fff" fill-rule="evenodd"/>
      <path id="Path_8" data-name="Path 8" d="M174.7,23.118a.376.376,0,0,1,.376.376v3.3a.376.376,0,0,1-.376.375h-4.008a.376.376,0,0,1-.377-.375v-3.3a.376.376,0,0,1,.377-.376Zm1.624,6.718A1.878,1.878,0,0,0,178.2,27.96V22.331a1.878,1.878,0,0,0-1.879-1.875h-7.255a1.878,1.878,0,0,0-1.879,1.875V27.96a1.878,1.878,0,0,0,1.879,1.875Z" transform="translate(-69.985 -8.563)" fill="#fff" fill-rule="evenodd"/>
      <rect id="Rectangle_1" data-name="Rectangle 1" width="11.819" height="0.709" transform="translate(148.181 26.494)" fill="#fff"/>
      <rect id="Rectangle_2" data-name="Rectangle 2" width="11.819" height="0.709" transform="translate(80.518 26.494)" fill="#fff"/>
      <path id="Path_9" data-name="Path 9" d="M233.685,42.385h.591v4.607h-.756V42.385Z" transform="translate(-97.75 -17.742)" fill="#fff" fill-rule="evenodd"/>
      <path id="Path_10" data-name="Path 10" d="M210.966,42.967v-.583h2.671v.748h-.954v3.859h-.763V43.132h-.953Z" transform="translate(-88.309 -17.742)" fill="#fff" fill-rule="evenodd"/>
      <path id="Path_11" data-name="Path 11" d="M186.7,42.385h2.613v.748H187.3v1.009h2v.748h-2v1.354h2v.748h-2.761V42.385Z" transform="translate(-78.083 -17.742)" fill="#fff" fill-rule="evenodd"/>
      <path id="Path_12" data-name="Path 12" d="M176.289,42.385h.595v3.859h1.653v.748h-2.413V42.385Z" transform="translate(-73.724 -17.742)" fill="#fff" fill-rule="evenodd"/>
      <path id="Path_13" data-name="Path 13" d="M165.135,42.385h2.613v.748H165.73v1.009h2v.748h-2v1.354h2v.748H164.97V42.385Z" transform="translate(-69.055 -17.742)" fill="#fff" fill-rule="evenodd"/>
      <path id="Path_14" data-name="Path 14" d="M222.528,43.133v1.124l.573,0a2.7,2.7,0,0,0,.351-.018,1,1,0,0,0,.223-.051.576.576,0,0,0,.143-.082.547.547,0,0,0,.1-.114h0a.509.509,0,0,0,.068-.144v0a.592.592,0,0,0,.021-.165.557.557,0,0,0-.021-.158.548.548,0,0,0-.068-.14h0a.574.574,0,0,0-.1-.113.467.467,0,0,0-.129-.076.862.862,0,0,0-.212-.047,3.2,3.2,0,0,0-.358-.017Zm-.6-.748h.853c.237,0,.441.006.606.016a2.489,2.489,0,0,1,.4.048,1.346,1.346,0,0,1,.391.155,1.209,1.209,0,0,1,.319.273,1.157,1.157,0,0,1,.208.371,1.338,1.338,0,0,1,.069.44,1.381,1.381,0,0,1-.047.371,1.211,1.211,0,0,1-.143.328,1.1,1.1,0,0,1-.233.272,1.225,1.225,0,0,1-.312.193,1.7,1.7,0,0,1-.4.113c-.058.01-.118.019-.183.024l1.344,1.737.2.266h-.942l-.046-.065L222.528,45v1.988h-.76V42.385Z" transform="translate(-92.831 -17.742)" fill="#fff" fill-rule="evenodd"/>
      <path id="Path_15" data-name="Path 15" d="M245.833,45.992l-.1.126a2.126,2.126,0,0,1-.369.372,2.217,2.217,0,0,1-.451.276,2.33,2.33,0,0,1-.516.171,2.816,2.816,0,0,1-.57.056,2.565,2.565,0,0,1-1.018-.192,2.1,2.1,0,0,1-.792-.577,2.235,2.235,0,0,1-.419-.716,2.476,2.476,0,0,1-.14-.843,2.173,2.173,0,0,1,.677-1.622,2.281,2.281,0,0,1,.763-.494,2.52,2.52,0,0,1,.925-.164,2.663,2.663,0,0,1,.577.06,2.38,2.38,0,0,1,.523.181,2.235,2.235,0,0,1,.817.68l.09.125-.3.227-.308.237-.1-.142a1.289,1.289,0,0,0-.147-.172,1.444,1.444,0,0,0-.172-.144,1.69,1.69,0,0,0-.2-.123,1.531,1.531,0,0,0-.226-.09,1.6,1.6,0,0,0-.248-.056,2.105,2.105,0,0,0-.276-.023,2.007,2.007,0,0,0-.437.041,1.5,1.5,0,0,0-.2.055c-.04.014-.075.03-.115.047a1.817,1.817,0,0,0-.172.091,1.358,1.358,0,0,0-.162.116,1.728,1.728,0,0,0-.154.144,1.543,1.543,0,0,0-.229.313,1.41,1.41,0,0,0-.076.169,1.515,1.515,0,0,0-.054.179,1.817,1.817,0,0,0-.033.2,2.317,2.317,0,0,0,0,.27,1.732,1.732,0,0,0,.061.385,1.561,1.561,0,0,0,.136.331c.033.051.065.1.1.151s.065.084.1.123a1.5,1.5,0,0,0,.158.146,1.284,1.284,0,0,0,.165.118,1.776,1.776,0,0,0,.19.091,1.564,1.564,0,0,0,.212.066,1.63,1.63,0,0,0,.24.041,2.243,2.243,0,0,0,.272.013,2.053,2.053,0,0,0,.276-.021,1.74,1.74,0,0,0,.251-.055,1.437,1.437,0,0,0,.222-.086,1.355,1.355,0,0,0,.2-.115,1.764,1.764,0,0,0,.176-.14,1.575,1.575,0,0,0,.154-.168l.09-.115Z" transform="translate(-101.072 -17.742)" fill="#fff" fill-rule="evenodd"/>
    </g>
  </g>
</svg>
